# xmcd
#
# Track frame offsets:
#	150
#	21161
#	37050
#	54933
#	72259
#	90046
#	111203
#	131947
#	144634
#	162338
#	179431
#	197284
#	212905
#	230580
#	247626
#	258288
#	275403
#
# Disc length: 3745 seconds
#
# Revision: 0
# Processed by: cddbd v1.5.2PL0 Copyright (c) Steve Scherf et al.
# Submitted via: dBpowerAMP V4.0
#
DISCID=eb0e9f11
DTITLE=Coolgrass - Toad Rage
DYEAR=2004
DGENRE=Bluegrass
TTITLE0=Old Croaker
TTITLE1=Smelly Dog
TTITLE2=In the Mood
TTITLE3=Welcome Me Back
TTITLE4=Easy to Love
TTITLE5=Csardas
TTITLE6=Polka on a Banjo
TTITLE7=Bank on It
TTITLE8=Better Off Dead
TTITLE9=Banjo Picker From Hell
TTITLE10=Pink Panther
TTITLE11=Empty Tank
TTITLE12=Rondo Alla Turca
TTITLE13=Last Letter Home
TTITLE14=Big Chrysler
TTITLE15=Coolgrass
TTITLE16=One For the Toad
EXTD=Coolgrass
EXTT0=
EXTT1=
EXTT2=
EXTT3=
EXTT4=
EXTT5=
EXTT6=
EXTT7=
EXTT8=
EXTT9=
EXTT10=
EXTT11=
EXTT12=
EXTT13=
EXTT14=
EXTT15=
EXTT16=
PLAYORDER=
